<mxfile host="Electron" modified="2024-05-28T14:42:03.747Z" agent="Mozilla/5.0 (Macintosh; Intel Mac OS X 10_15_7) AppleWebKit/537.36 (KHTML, like Gecko) draw.io/24.4.8 Chrome/124.0.6367.207 Electron/30.0.6 Safari/537.36" etag="NqzCaFz5Tg56RZUgWab5" version="24.4.8" type="device" pages="2">
  <diagram id="6fAaXqbDz4AvDBYqBOA4" name="Buisness use case">
    <mxGraphModel dx="954" dy="1843" grid="1" gridSize="10" guides="1" tooltips="1" connect="1" arrows="1" fold="1" page="1" pageScale="1" pageWidth="827" pageHeight="1169" math="0" shadow="0">
      <root>
        <mxCell id="0" />
        <mxCell id="1" parent="0" />
        <mxCell id="n4_YObwAtRwjSoVmuN9l-1" value="Заказчик" style="shape=umlActor;verticalLabelPosition=bottom;verticalAlign=top;html=1;outlineConnect=0;" parent="1" vertex="1">
          <mxGeometry x="90" y="80" width="30" height="60" as="geometry" />
        </mxCell>
        <mxCell id="n4_YObwAtRwjSoVmuN9l-2" value="Программист" style="shape=umlActor;verticalLabelPosition=bottom;verticalAlign=top;html=1;outlineConnect=0;" parent="1" vertex="1">
          <mxGeometry x="270" y="30" width="30" height="60" as="geometry" />
        </mxCell>
        <mxCell id="AM6VRrfM5flD_kYnUJl_-4" style="edgeStyle=orthogonalEdgeStyle;rounded=0;orthogonalLoop=1;jettySize=auto;html=1;exitX=0;exitY=1;exitDx=0;exitDy=0;exitPerimeter=0;entryX=1;entryY=0.5;entryDx=0;entryDy=0;" parent="1" source="n4_YObwAtRwjSoVmuN9l-3" target="AM6VRrfM5flD_kYnUJl_-2" edge="1">
          <mxGeometry relative="1" as="geometry">
            <Array as="points">
              <mxPoint x="400" y="150" />
              <mxPoint x="400" y="190" />
            </Array>
          </mxGeometry>
        </mxCell>
        <mxCell id="n4_YObwAtRwjSoVmuN9l-3" value="Программа" style="shape=umlActor;verticalLabelPosition=bottom;verticalAlign=top;html=1;outlineConnect=0;" parent="1" vertex="1">
          <mxGeometry x="450" y="90" width="30" height="60" as="geometry" />
        </mxCell>
        <mxCell id="n4_YObwAtRwjSoVmuN9l-4" value="База данных" style="shape=umlActor;verticalLabelPosition=bottom;verticalAlign=top;html=1;outlineConnect=0;" parent="1" vertex="1">
          <mxGeometry x="1230" y="90" width="30" height="60" as="geometry" />
        </mxCell>
        <mxCell id="AM6VRrfM5flD_kYnUJl_-13" style="edgeStyle=orthogonalEdgeStyle;rounded=0;orthogonalLoop=1;jettySize=auto;html=1;entryX=0;entryY=0.5;entryDx=0;entryDy=0;" parent="1" source="n4_YObwAtRwjSoVmuN9l-5" target="AM6VRrfM5flD_kYnUJl_-7" edge="1">
          <mxGeometry relative="1" as="geometry">
            <mxPoint x="990" y="120" as="targetPoint" />
          </mxGeometry>
        </mxCell>
        <mxCell id="JA7vQkSG43PdgeKlhnZR-4" style="edgeStyle=orthogonalEdgeStyle;rounded=0;orthogonalLoop=1;jettySize=auto;html=1;entryX=1;entryY=0.5;entryDx=0;entryDy=0;" edge="1" parent="1" source="n4_YObwAtRwjSoVmuN9l-5" target="JA7vQkSG43PdgeKlhnZR-2">
          <mxGeometry relative="1" as="geometry">
            <Array as="points">
              <mxPoint x="915" y="-80" />
            </Array>
          </mxGeometry>
        </mxCell>
        <mxCell id="n4_YObwAtRwjSoVmuN9l-5" value="Драйвер" style="shape=umlActor;verticalLabelPosition=bottom;verticalAlign=top;html=1;outlineConnect=0;" parent="1" vertex="1">
          <mxGeometry x="900" y="90" width="30" height="60" as="geometry" />
        </mxCell>
        <mxCell id="n4_YObwAtRwjSoVmuN9l-6" style="edgeStyle=orthogonalEdgeStyle;rounded=0;orthogonalLoop=1;jettySize=auto;html=1;entryX=0.5;entryY=0.5;entryDx=0;entryDy=0;entryPerimeter=0;exitX=0.5;exitY=0.5;exitDx=0;exitDy=0;exitPerimeter=0;" parent="1" source="n4_YObwAtRwjSoVmuN9l-1" target="n4_YObwAtRwjSoVmuN9l-2" edge="1">
          <mxGeometry relative="1" as="geometry" />
        </mxCell>
        <mxCell id="n4_YObwAtRwjSoVmuN9l-7" style="edgeStyle=orthogonalEdgeStyle;rounded=0;orthogonalLoop=1;jettySize=auto;html=1;entryX=0.5;entryY=0.5;entryDx=0;entryDy=0;entryPerimeter=0;" parent="1" source="n4_YObwAtRwjSoVmuN9l-2" target="n4_YObwAtRwjSoVmuN9l-3" edge="1">
          <mxGeometry relative="1" as="geometry" />
        </mxCell>
        <mxCell id="AM6VRrfM5flD_kYnUJl_-1" value="" style="group" parent="1" vertex="1" connectable="0">
          <mxGeometry x="200" y="160" width="170" height="60" as="geometry" />
        </mxCell>
        <mxCell id="AM6VRrfM5flD_kYnUJl_-2" value="" style="ellipse;whiteSpace=wrap;html=1;verticalAlign=top;" parent="AM6VRrfM5flD_kYnUJl_-1" vertex="1">
          <mxGeometry width="170" height="60" as="geometry" />
        </mxCell>
        <mxCell id="AM6VRrfM5flD_kYnUJl_-3" value="Решение задач бизнеса" style="text;html=1;align=center;verticalAlign=middle;whiteSpace=wrap;rounded=0;" parent="AM6VRrfM5flD_kYnUJl_-1" vertex="1">
          <mxGeometry x="21.25" y="12" width="127.5" height="36" as="geometry" />
        </mxCell>
        <mxCell id="AM6VRrfM5flD_kYnUJl_-5" style="edgeStyle=orthogonalEdgeStyle;rounded=0;orthogonalLoop=1;jettySize=auto;html=1;entryX=1;entryY=1;entryDx=0;entryDy=0;entryPerimeter=0;" parent="1" source="AM6VRrfM5flD_kYnUJl_-2" target="n4_YObwAtRwjSoVmuN9l-1" edge="1">
          <mxGeometry relative="1" as="geometry">
            <Array as="points">
              <mxPoint x="150" y="190" />
              <mxPoint x="150" y="140" />
            </Array>
          </mxGeometry>
        </mxCell>
        <mxCell id="AM6VRrfM5flD_kYnUJl_-6" value="" style="group" parent="1" vertex="1" connectable="0">
          <mxGeometry x="1000" y="90" width="170" height="60" as="geometry" />
        </mxCell>
        <mxCell id="AM6VRrfM5flD_kYnUJl_-7" value="" style="ellipse;whiteSpace=wrap;html=1;verticalAlign=top;" parent="AM6VRrfM5flD_kYnUJl_-6" vertex="1">
          <mxGeometry width="170" height="60" as="geometry" />
        </mxCell>
        <mxCell id="AM6VRrfM5flD_kYnUJl_-8" value="Автоматизация взаимодействия с базой данных" style="text;html=1;align=center;verticalAlign=middle;whiteSpace=wrap;rounded=0;" parent="AM6VRrfM5flD_kYnUJl_-6" vertex="1">
          <mxGeometry x="21.25" y="12" width="127.5" height="36" as="geometry" />
        </mxCell>
        <mxCell id="AM6VRrfM5flD_kYnUJl_-14" style="edgeStyle=orthogonalEdgeStyle;rounded=0;orthogonalLoop=1;jettySize=auto;html=1;entryX=0.5;entryY=0.5;entryDx=0;entryDy=0;entryPerimeter=0;" parent="1" source="AM6VRrfM5flD_kYnUJl_-7" target="n4_YObwAtRwjSoVmuN9l-4" edge="1">
          <mxGeometry relative="1" as="geometry" />
        </mxCell>
        <mxCell id="22hbBBgYLk1kHF6yEpSc-14" value="" style="edgeStyle=orthogonalEdgeStyle;rounded=0;orthogonalLoop=1;jettySize=auto;html=1;" edge="1" parent="1" source="22hbBBgYLk1kHF6yEpSc-17" target="22hbBBgYLk1kHF6yEpSc-19">
          <mxGeometry relative="1" as="geometry" />
        </mxCell>
        <mxCell id="22hbBBgYLk1kHF6yEpSc-15" style="edgeStyle=orthogonalEdgeStyle;rounded=0;orthogonalLoop=1;jettySize=auto;html=1;entryX=0.5;entryY=1;entryDx=0;entryDy=0;" edge="1" parent="1" source="22hbBBgYLk1kHF6yEpSc-17" target="22hbBBgYLk1kHF6yEpSc-25">
          <mxGeometry relative="1" as="geometry" />
        </mxCell>
        <mxCell id="22hbBBgYLk1kHF6yEpSc-16" style="edgeStyle=orthogonalEdgeStyle;rounded=0;orthogonalLoop=1;jettySize=auto;html=1;entryX=0;entryY=0.5;entryDx=0;entryDy=0;" edge="1" parent="1" source="22hbBBgYLk1kHF6yEpSc-17" target="22hbBBgYLk1kHF6yEpSc-22">
          <mxGeometry relative="1" as="geometry" />
        </mxCell>
        <mxCell id="22hbBBgYLk1kHF6yEpSc-17" value="Программа" style="shape=umlActor;verticalLabelPosition=bottom;verticalAlign=top;html=1;outlineConnect=0;" vertex="1" parent="1">
          <mxGeometry x="450" y="90" width="30" height="60" as="geometry" />
        </mxCell>
        <mxCell id="22hbBBgYLk1kHF6yEpSc-18" value="" style="group" vertex="1" connectable="0" parent="1">
          <mxGeometry x="520" y="200" width="170" height="60" as="geometry" />
        </mxCell>
        <mxCell id="22hbBBgYLk1kHF6yEpSc-19" value="" style="ellipse;whiteSpace=wrap;html=1;verticalAlign=top;" vertex="1" parent="22hbBBgYLk1kHF6yEpSc-18">
          <mxGeometry width="170" height="60" as="geometry" />
        </mxCell>
        <mxCell id="22hbBBgYLk1kHF6yEpSc-20" value="отправка адреса в базу" style="text;html=1;align=center;verticalAlign=middle;whiteSpace=wrap;rounded=0;" vertex="1" parent="22hbBBgYLk1kHF6yEpSc-18">
          <mxGeometry x="21.25" y="12" width="127.5" height="36" as="geometry" />
        </mxCell>
        <mxCell id="22hbBBgYLk1kHF6yEpSc-21" value="" style="group" vertex="1" connectable="0" parent="1">
          <mxGeometry x="650" y="90" width="170" height="60" as="geometry" />
        </mxCell>
        <mxCell id="22hbBBgYLk1kHF6yEpSc-22" value="" style="ellipse;whiteSpace=wrap;html=1;verticalAlign=top;" vertex="1" parent="22hbBBgYLk1kHF6yEpSc-21">
          <mxGeometry width="170" height="60" as="geometry" />
        </mxCell>
        <mxCell id="22hbBBgYLk1kHF6yEpSc-23" value="отправка данных, которые мы хотим поместить в базу" style="text;html=1;align=center;verticalAlign=middle;whiteSpace=wrap;rounded=0;" vertex="1" parent="22hbBBgYLk1kHF6yEpSc-21">
          <mxGeometry x="21.25" y="12" width="127.5" height="36" as="geometry" />
        </mxCell>
        <mxCell id="22hbBBgYLk1kHF6yEpSc-24" value="" style="group" vertex="1" connectable="0" parent="1">
          <mxGeometry x="520" y="-20" width="170" height="60" as="geometry" />
        </mxCell>
        <mxCell id="22hbBBgYLk1kHF6yEpSc-25" value="" style="ellipse;whiteSpace=wrap;html=1;verticalAlign=top;" vertex="1" parent="22hbBBgYLk1kHF6yEpSc-24">
          <mxGeometry width="170" height="60" as="geometry" />
        </mxCell>
        <mxCell id="22hbBBgYLk1kHF6yEpSc-26" value="отправка данных, которые нужно получить с базы" style="text;html=1;align=center;verticalAlign=middle;whiteSpace=wrap;rounded=0;" vertex="1" parent="22hbBBgYLk1kHF6yEpSc-24">
          <mxGeometry x="21.25" y="12" width="127.5" height="36" as="geometry" />
        </mxCell>
        <mxCell id="_kwI4x3b4UkmES7RY4p7-1" style="edgeStyle=orthogonalEdgeStyle;rounded=0;orthogonalLoop=1;jettySize=auto;html=1;entryX=0.5;entryY=0.5;entryDx=0;entryDy=0;entryPerimeter=0;" edge="1" parent="1" source="22hbBBgYLk1kHF6yEpSc-25" target="n4_YObwAtRwjSoVmuN9l-5">
          <mxGeometry relative="1" as="geometry">
            <Array as="points">
              <mxPoint x="830" y="10" />
              <mxPoint x="830" y="120" />
            </Array>
          </mxGeometry>
        </mxCell>
        <mxCell id="_kwI4x3b4UkmES7RY4p7-2" style="edgeStyle=orthogonalEdgeStyle;rounded=0;orthogonalLoop=1;jettySize=auto;html=1;entryX=0.5;entryY=0.5;entryDx=0;entryDy=0;entryPerimeter=0;" edge="1" parent="1" source="22hbBBgYLk1kHF6yEpSc-22" target="n4_YObwAtRwjSoVmuN9l-5">
          <mxGeometry relative="1" as="geometry" />
        </mxCell>
        <mxCell id="_kwI4x3b4UkmES7RY4p7-3" style="edgeStyle=orthogonalEdgeStyle;rounded=0;orthogonalLoop=1;jettySize=auto;html=1;entryX=0.5;entryY=0.5;entryDx=0;entryDy=0;entryPerimeter=0;" edge="1" parent="1" source="22hbBBgYLk1kHF6yEpSc-19" target="n4_YObwAtRwjSoVmuN9l-5">
          <mxGeometry relative="1" as="geometry">
            <Array as="points">
              <mxPoint x="830" y="230" />
              <mxPoint x="830" y="120" />
            </Array>
          </mxGeometry>
        </mxCell>
        <mxCell id="JA7vQkSG43PdgeKlhnZR-1" value="" style="group" vertex="1" connectable="0" parent="1">
          <mxGeometry x="590" y="-110" width="170" height="60" as="geometry" />
        </mxCell>
        <mxCell id="JA7vQkSG43PdgeKlhnZR-2" value="" style="ellipse;whiteSpace=wrap;html=1;verticalAlign=top;" vertex="1" parent="JA7vQkSG43PdgeKlhnZR-1">
          <mxGeometry width="170" height="60" as="geometry" />
        </mxCell>
        <mxCell id="JA7vQkSG43PdgeKlhnZR-3" value="Перевод ответов в нужный формат" style="text;html=1;align=center;verticalAlign=middle;whiteSpace=wrap;rounded=0;" vertex="1" parent="JA7vQkSG43PdgeKlhnZR-1">
          <mxGeometry x="21.25" y="12" width="127.5" height="36" as="geometry" />
        </mxCell>
        <mxCell id="JA7vQkSG43PdgeKlhnZR-5" style="edgeStyle=orthogonalEdgeStyle;rounded=0;orthogonalLoop=1;jettySize=auto;html=1;entryX=0.5;entryY=0;entryDx=0;entryDy=0;entryPerimeter=0;" edge="1" parent="1" source="JA7vQkSG43PdgeKlhnZR-2" target="22hbBBgYLk1kHF6yEpSc-17">
          <mxGeometry relative="1" as="geometry" />
        </mxCell>
      </root>
    </mxGraphModel>
  </diagram>
  <diagram name="Use case" id="929967ad-93f9-6ef4-fab6-5d389245f69c">
    <mxGraphModel dx="954" dy="674" grid="1" gridSize="10" guides="1" tooltips="1" connect="1" arrows="1" fold="1" page="1" pageScale="1.5" pageWidth="1169" pageHeight="826" background="none" math="0" shadow="0">
      <root>
        <mxCell id="0" style=";html=1;" />
        <mxCell id="1" style=";html=1;" parent="0" />
        <mxCell id="7PLw8zonSWRr5zyI38x--63" style="edgeStyle=orthogonalEdgeStyle;rounded=0;orthogonalLoop=1;jettySize=auto;html=1;entryX=1;entryY=0.5;entryDx=0;entryDy=0;" parent="1" source="7PLw8zonSWRr5zyI38x--13" target="7PLw8zonSWRr5zyI38x--61" edge="1">
          <mxGeometry relative="1" as="geometry" />
        </mxCell>
        <mxCell id="7PLw8zonSWRr5zyI38x--13" value="База данных" style="shape=umlActor;verticalLabelPosition=bottom;verticalAlign=top;html=1;outlineConnect=0;" parent="1" vertex="1">
          <mxGeometry x="914" y="263" width="30" height="60" as="geometry" />
        </mxCell>
        <mxCell id="7PLw8zonSWRr5zyI38x--47" style="edgeStyle=orthogonalEdgeStyle;rounded=0;orthogonalLoop=1;jettySize=auto;html=1;entryX=0;entryY=0.5;entryDx=0;entryDy=0;" parent="1" source="7PLw8zonSWRr5zyI38x--14" target="7PLw8zonSWRr5zyI38x--45" edge="1">
          <mxGeometry relative="1" as="geometry" />
        </mxCell>
        <mxCell id="7PLw8zonSWRr5zyI38x--48" style="edgeStyle=orthogonalEdgeStyle;rounded=0;orthogonalLoop=1;jettySize=auto;html=1;entryX=0;entryY=0.5;entryDx=0;entryDy=0;" parent="1" source="7PLw8zonSWRr5zyI38x--14" target="7PLw8zonSWRr5zyI38x--42" edge="1">
          <mxGeometry relative="1" as="geometry" />
        </mxCell>
        <mxCell id="7PLw8zonSWRr5zyI38x--49" style="edgeStyle=orthogonalEdgeStyle;rounded=0;orthogonalLoop=1;jettySize=auto;html=1;entryX=0;entryY=0.5;entryDx=0;entryDy=0;exitX=0.5;exitY=0.5;exitDx=0;exitDy=0;exitPerimeter=0;" parent="1" source="7PLw8zonSWRr5zyI38x--14" target="7PLw8zonSWRr5zyI38x--39" edge="1">
          <mxGeometry relative="1" as="geometry" />
        </mxCell>
        <mxCell id="UW_Z60oa0WGJZJgbpd6--1" style="edgeStyle=orthogonalEdgeStyle;rounded=0;orthogonalLoop=1;jettySize=auto;html=1;entryX=1;entryY=0.5;entryDx=0;entryDy=0;exitX=0.5;exitY=0.5;exitDx=0;exitDy=0;exitPerimeter=0;" edge="1" parent="1" source="7PLw8zonSWRr5zyI38x--14" target="7PLw8zonSWRr5zyI38x--72">
          <mxGeometry relative="1" as="geometry" />
        </mxCell>
        <mxCell id="7PLw8zonSWRr5zyI38x--14" value="Драйвер" style="shape=umlActor;verticalLabelPosition=bottom;verticalAlign=top;html=1;outlineConnect=0;" parent="1" vertex="1">
          <mxGeometry x="524" y="143" width="30" height="60" as="geometry" />
        </mxCell>
        <mxCell id="7PLw8zonSWRr5zyI38x--38" value="" style="group" parent="1" vertex="1" connectable="0">
          <mxGeometry x="624" y="23" width="170" height="60" as="geometry" />
        </mxCell>
        <mxCell id="7PLw8zonSWRr5zyI38x--39" value="" style="ellipse;whiteSpace=wrap;html=1;verticalAlign=top;" parent="7PLw8zonSWRr5zyI38x--38" vertex="1">
          <mxGeometry width="170" height="60" as="geometry" />
        </mxCell>
        <mxCell id="7PLw8zonSWRr5zyI38x--40" value="составление запросов на получение данных" style="text;html=1;align=center;verticalAlign=middle;whiteSpace=wrap;rounded=0;" parent="7PLw8zonSWRr5zyI38x--38" vertex="1">
          <mxGeometry x="21.25" y="12" width="127.5" height="36" as="geometry" />
        </mxCell>
        <mxCell id="7PLw8zonSWRr5zyI38x--41" value="" style="group" parent="1" vertex="1" connectable="0">
          <mxGeometry x="624" y="143" width="170" height="60" as="geometry" />
        </mxCell>
        <mxCell id="7PLw8zonSWRr5zyI38x--42" value="" style="ellipse;whiteSpace=wrap;html=1;verticalAlign=top;" parent="7PLw8zonSWRr5zyI38x--41" vertex="1">
          <mxGeometry width="170" height="60" as="geometry" />
        </mxCell>
        <mxCell id="7PLw8zonSWRr5zyI38x--43" value="составление запросов на изменение данных" style="text;html=1;align=center;verticalAlign=middle;whiteSpace=wrap;rounded=0;" parent="7PLw8zonSWRr5zyI38x--41" vertex="1">
          <mxGeometry x="21.25" y="12" width="127.5" height="36" as="geometry" />
        </mxCell>
        <mxCell id="7PLw8zonSWRr5zyI38x--44" value="" style="group" parent="1" vertex="1" connectable="0">
          <mxGeometry x="624" y="263" width="170" height="60" as="geometry" />
        </mxCell>
        <mxCell id="7PLw8zonSWRr5zyI38x--45" value="" style="ellipse;whiteSpace=wrap;html=1;verticalAlign=top;" parent="7PLw8zonSWRr5zyI38x--44" vertex="1">
          <mxGeometry width="170" height="60" as="geometry" />
        </mxCell>
        <mxCell id="7PLw8zonSWRr5zyI38x--46" value="установка соединения с базой" style="text;html=1;align=center;verticalAlign=middle;whiteSpace=wrap;rounded=0;" parent="7PLw8zonSWRr5zyI38x--44" vertex="1">
          <mxGeometry x="21.25" y="12" width="127.5" height="36" as="geometry" />
        </mxCell>
        <mxCell id="7PLw8zonSWRr5zyI38x--50" value="" style="group" parent="1" vertex="1" connectable="0">
          <mxGeometry x="844" y="83" width="170" height="60" as="geometry" />
        </mxCell>
        <mxCell id="7PLw8zonSWRr5zyI38x--51" value="" style="ellipse;whiteSpace=wrap;html=1;verticalAlign=top;" parent="7PLw8zonSWRr5zyI38x--50" vertex="1">
          <mxGeometry width="170" height="60" as="geometry" />
        </mxCell>
        <mxCell id="7PLw8zonSWRr5zyI38x--52" value="взаимодействие с базой данных" style="text;html=1;align=center;verticalAlign=middle;whiteSpace=wrap;rounded=0;" parent="7PLw8zonSWRr5zyI38x--50" vertex="1">
          <mxGeometry x="21.25" y="12" width="127.5" height="36" as="geometry" />
        </mxCell>
        <mxCell id="7PLw8zonSWRr5zyI38x--53" style="edgeStyle=orthogonalEdgeStyle;rounded=0;orthogonalLoop=1;jettySize=auto;html=1;entryX=0;entryY=0.5;entryDx=0;entryDy=0;" parent="1" source="7PLw8zonSWRr5zyI38x--39" target="7PLw8zonSWRr5zyI38x--51" edge="1">
          <mxGeometry relative="1" as="geometry" />
        </mxCell>
        <mxCell id="7PLw8zonSWRr5zyI38x--55" style="edgeStyle=orthogonalEdgeStyle;rounded=0;orthogonalLoop=1;jettySize=auto;html=1;entryX=0;entryY=0.5;entryDx=0;entryDy=0;" parent="1" source="7PLw8zonSWRr5zyI38x--42" target="7PLw8zonSWRr5zyI38x--51" edge="1">
          <mxGeometry relative="1" as="geometry" />
        </mxCell>
        <mxCell id="7PLw8zonSWRr5zyI38x--57" style="edgeStyle=orthogonalEdgeStyle;rounded=0;orthogonalLoop=1;jettySize=auto;html=1;entryX=0.5;entryY=0;entryDx=0;entryDy=0;entryPerimeter=0;" parent="1" source="7PLw8zonSWRr5zyI38x--52" target="7PLw8zonSWRr5zyI38x--13" edge="1">
          <mxGeometry relative="1" as="geometry" />
        </mxCell>
        <mxCell id="7PLw8zonSWRr5zyI38x--58" style="edgeStyle=orthogonalEdgeStyle;rounded=0;orthogonalLoop=1;jettySize=auto;html=1;entryX=0.5;entryY=0.5;entryDx=0;entryDy=0;entryPerimeter=0;" parent="1" source="7PLw8zonSWRr5zyI38x--45" target="7PLw8zonSWRr5zyI38x--13" edge="1">
          <mxGeometry relative="1" as="geometry" />
        </mxCell>
        <mxCell id="7PLw8zonSWRr5zyI38x--60" value="" style="group" parent="1" vertex="1" connectable="0">
          <mxGeometry x="634" y="373" width="170" height="60" as="geometry" />
        </mxCell>
        <mxCell id="7PLw8zonSWRr5zyI38x--61" value="" style="ellipse;whiteSpace=wrap;html=1;verticalAlign=top;" parent="7PLw8zonSWRr5zyI38x--60" vertex="1">
          <mxGeometry width="170" height="60" as="geometry" />
        </mxCell>
        <mxCell id="7PLw8zonSWRr5zyI38x--62" value="проверка ответа" style="text;html=1;align=center;verticalAlign=middle;whiteSpace=wrap;rounded=0;" parent="7PLw8zonSWRr5zyI38x--60" vertex="1">
          <mxGeometry x="21.25" y="12" width="127.5" height="36" as="geometry" />
        </mxCell>
        <mxCell id="7PLw8zonSWRr5zyI38x--66" style="edgeStyle=orthogonalEdgeStyle;rounded=0;orthogonalLoop=1;jettySize=auto;html=1;entryX=1;entryY=1;entryDx=0;entryDy=0;entryPerimeter=0;" parent="1" source="7PLw8zonSWRr5zyI38x--61" target="7PLw8zonSWRr5zyI38x--14" edge="1">
          <mxGeometry relative="1" as="geometry">
            <Array as="points">
              <mxPoint x="574" y="403" />
              <mxPoint x="574" y="203" />
            </Array>
          </mxGeometry>
        </mxCell>
        <mxCell id="7PLw8zonSWRr5zyI38x--71" value="" style="group" parent="1" vertex="1" connectable="0">
          <mxGeometry x="100" y="143" width="170" height="60" as="geometry" />
        </mxCell>
        <mxCell id="7PLw8zonSWRr5zyI38x--72" value="" style="ellipse;whiteSpace=wrap;html=1;verticalAlign=top;" parent="7PLw8zonSWRr5zyI38x--71" vertex="1">
          <mxGeometry width="170" height="60" as="geometry" />
        </mxCell>
        <mxCell id="7PLw8zonSWRr5zyI38x--73" value="Перевод ответов в нужный формат" style="text;html=1;align=center;verticalAlign=middle;whiteSpace=wrap;rounded=0;" parent="7PLw8zonSWRr5zyI38x--71" vertex="1">
          <mxGeometry x="21.25" y="12" width="127.5" height="36" as="geometry" />
        </mxCell>
      </root>
    </mxGraphModel>
  </diagram>
</mxfile>
